<svg width="16" height="16" viewBox="0 0 16 16" fill="none" xmlns="http://www.w3.org/2000/svg">
<path d="M8 0.666504C7.46957 0.666504 6.96086 0.877218 6.58579 1.25229C6.21071 1.62736 6 2.13607 6 2.6665V7.99984C6 8.53027 6.21071 9.03898 6.58579 9.41405C6.96086 9.78912 7.46957 9.99984 8 9.99984C8.53043 9.99984 9.03914 9.78912 9.41421 9.41405C9.78929 9.03898 10 8.53027 10 7.99984V2.6665C10 2.13607 9.78929 1.62736 9.41421 1.25229C9.03914 0.877218 8.53043 0.666504 8 0.666504V0.666504Z" stroke="#08070C" stroke-linecap="round" stroke-linejoin="round"/>
<path d="M12.6666 6.6665V7.99984C12.6666 9.23751 12.175 10.4245 11.2998 11.2997C10.4246 12.1748 9.23766 12.6665 7.99998 12.6665C6.7623 12.6665 5.57532 12.1748 4.70015 11.2997C3.82498 10.4245 3.33331 9.23751 3.33331 7.99984V6.6665" stroke="#08070C" stroke-linecap="round" stroke-linejoin="round"/>
<path d="M8 12.6665V15.3332" stroke="#08070C" stroke-linecap="round" stroke-linejoin="round"/>
<path d="M5.33331 15.3335H10.6666" stroke="#08070C" stroke-linecap="round" stroke-linejoin="round"/>
</svg>
